# xmcd
# Track frame offsets:
# 150
# 13308
# 25761
# 38164
# 51770
# 63152
# 75768
# 87426
# 101504
# 114979
#
# Disc length: 1656 seconds
# Revision: 0
# Processed by: cddbd v1.5.2PL0 Copyright (c) Steve Scherf et al.
# Submitted via: VisiTrax 2.9.5.181 - For more info visit www.synapsa.com
#
DISCID=6c06760a
DTITLE=George Jones - Best Of George Jones
DYEAR=1999
DGENRE=Country
TTITLE0=Hello Darlin'
TTITLE1=Blue Side Of Lonesome
TTITLE2=Okie From Muskogee
TTITLE3=Come Sundown
TTITLE4=Talk Back Trembling Lips
TTITLE5=Don't Be Angry
TTITLE6=Fightin' Side Of Me
TTITLE7=All I Have To Offer You (Is Me)
TTITLE8=Almost Persuaded
TTITLE9=The Race Is On
EXTD=
EXTT0=
EXTT1=
EXTT2=
EXTT3=
EXTT4=
EXTT5=
EXTT6=
EXTT7=
EXTT8=
EXTT9=
PLAYORDER=
